<svg width="14" height="14" viewBox="0 0 14 14" fill="none" xmlns="http://www.w3.org/2000/svg">
<path d="M10.4995 0.729492H3.49946C2.76459 0.729492 2.05982 1.02142 1.54019 1.54105C1.02055 2.06068 0.728629 2.76546 0.728629 3.50033V10.5003C0.725874 10.5099 0.725874 10.52 0.728629 10.5295C0.736311 11.2593 1.03163 11.9566 1.55043 12.4699C2.06923 12.9833 2.76962 13.2712 3.49946 13.2712H10.4995C11.2263 13.2697 11.9235 12.9827 12.4407 12.472C12.9579 11.9614 13.2538 11.2679 13.2645 10.5412V3.50033C13.2645 2.76646 12.9733 2.06257 12.455 1.54311C11.9366 1.02365 11.2333 0.731037 10.4995 0.729492ZM12.3953 9.33366L9.95696 6.54533C9.80204 6.3804 9.61497 6.24895 9.4073 6.1591C9.19962 6.06925 8.97574 6.02289 8.74946 6.02289C8.52318 6.02289 8.2993 6.06925 8.09163 6.1591C7.88395 6.24895 7.69688 6.3804 7.54196 6.54533L5.8678 8.45866L5.31946 7.79366C5.16837 7.6124 4.97927 7.46658 4.76557 7.3665C4.55186 7.26643 4.31877 7.21456 4.0828 7.21456C3.84682 7.21456 3.61373 7.26643 3.40003 7.3665C3.18632 7.46658 2.99723 7.6124 2.84613 7.79366L1.60363 9.29283V3.50033C1.60517 2.99799 1.8054 2.51667 2.16061 2.16147C2.51581 1.80626 2.99713 1.60603 3.49946 1.60449H10.4995C11.0018 1.60603 11.4831 1.80626 11.8383 2.16147C12.1935 2.51667 12.3938 2.99799 12.3953 3.50033V9.33366Z" fill="#1D1D1D"/>
<path d="M4.08268 5.25033C4.72701 5.25033 5.24935 4.72799 5.24935 4.08366C5.24935 3.43933 4.72701 2.91699 4.08268 2.91699C3.43835 2.91699 2.91602 3.43933 2.91602 4.08366C2.91602 4.72799 3.43835 5.25033 4.08268 5.25033Z" fill="#1D1D1D"/>
</svg>
