<svg width="25" height="21" viewBox="0 0 25 21" fill="none" xmlns="http://www.w3.org/2000/svg">
<path d="M20.8249 20.1484C23.07 20.1484 24.1979 19.042 24.1979 16.8184V3.70215C24.1979 1.47852 23.07 0.37207 20.8249 0.37207H11.4899C10.2331 0.37207 9.14811 0.694336 8.26725 1.62891L1.94011 8.20312C1.24186 8.92285 0.919598 9.56738 0.919598 10.2441C0.919598 10.9102 1.23112 11.5654 1.94011 12.2852L8.278 18.8271C9.1696 19.751 10.2438 20.1377 11.5007 20.1377L20.8249 20.1484ZM20.8034 18.4189H11.4684C10.652 18.4189 10.1471 18.2256 9.5778 17.6455L3.28288 11.1465C2.91764 10.7705 2.81022 10.5127 2.81022 10.2441C2.81022 9.96484 2.92839 9.70703 3.28288 9.33105L9.56706 2.81055C10.1257 2.24121 10.652 2.10156 11.4577 2.10156H20.8034C21.8776 2.10156 22.4684 2.6709 22.4684 3.78809V16.7324C22.4684 17.8496 21.8776 18.4189 20.8034 18.4189ZM10.8669 14.7988C11.1032 14.7988 11.318 14.7021 11.4792 14.5303L14.5299 11.4688L17.5807 14.5303C17.7419 14.6914 17.9567 14.7988 18.2038 14.7988C18.6764 14.7988 19.0632 14.4014 19.0632 13.9287C19.0632 13.6816 18.9665 13.4775 18.8053 13.3164L15.7546 10.2656L18.8161 7.19336C18.988 7.01074 19.0739 6.82812 19.0739 6.5918C19.0739 6.1084 18.6872 5.73242 18.2145 5.73242C17.9889 5.73242 17.7956 5.80762 17.613 5.99023L14.5299 9.0625L11.4577 6.00098C11.2966 5.8291 11.1032 5.75391 10.8669 5.75391C10.3942 5.75391 10.0075 6.11914 10.0075 6.60254C10.0075 6.83887 10.0934 7.04297 10.2653 7.2041L13.3161 10.2656L10.2653 13.3271C10.0934 13.4775 10.0075 13.6924 10.0075 13.9287C10.0075 14.4014 10.3942 14.7988 10.8669 14.7988Z" fill="#1D1D1D"/>
</svg>
