<svg width="214" height="59" viewBox="0 0 214 59" fill="none" xmlns="http://www.w3.org/2000/svg">
<g clip-path="url(#clip0_166_1240)">
<path d="M86.4542 19.7204C88.4312 21.4985 89.4464 23.977 89.4464 27.1021C89.4464 28.8801 89.1259 30.5504 88.4312 32.113C87.7366 33.6755 86.6145 34.9686 85.0649 35.9385C83.5154 36.9622 81.5383 37.4471 79.0804 37.4471H74.8592V46.9301H68.9815V16.9725H78.0117C81.6452 16.9725 84.4772 17.8885 86.4542 19.7204ZM81.6986 30.9815C82.3933 30.4965 82.8742 29.9039 83.1413 29.2034C83.4619 28.503 83.5688 27.8564 83.5688 27.2637C83.5688 26.1861 83.2482 25.1624 82.6604 24.1925C82.0192 23.2227 80.8437 22.6839 79.0804 22.6839H74.8592V31.7358H79.027C80.1491 31.7358 81.004 31.4664 81.6986 30.9815Z" fill="#2C6A3F"/>
<path d="M112.744 29.1494V46.93H107.08V44.7209C105.37 46.4989 103.447 47.4149 101.203 47.4149C98.5843 47.4149 96.447 46.6067 94.844 45.0441C93.241 43.4816 92.386 41.1109 92.386 38.0397C92.386 36.1 92.7601 34.3758 93.5616 32.8671C94.3631 31.4124 95.4317 30.227 96.7141 29.4188C98.0499 28.6106 99.4392 28.1795 100.935 28.1795C102.485 28.1795 103.714 28.395 104.622 28.88C105.531 29.3649 106.332 30.0115 107.027 30.8736L107.401 29.0416H112.744V29.1494ZM107.08 40.0871V35.7228C106.76 34.8607 106.172 34.1603 105.424 33.6215C104.622 33.0827 103.714 32.8671 102.592 32.8671C101.363 32.8671 100.294 33.3521 99.4392 34.268C98.5843 35.184 98.1034 36.3694 98.1034 37.7703C98.1034 38.6862 98.3171 39.5483 98.7446 40.3027C99.172 41.057 99.7598 41.7036 100.454 42.1346C101.149 42.5656 101.951 42.7812 102.752 42.7812C104.783 42.7812 106.172 41.9191 107.08 40.0871Z" fill="#2C6A3F"/>
<path d="M136.788 29.1489L125.406 55.4965H119.956L124.177 46.0136L116.002 29.1489H122.361L127.009 39.6556L131.711 29.1489H136.788Z" fill="#2C6A3F"/>
<path d="M155.703 41.1107H145.871L143.467 46.9836H137.696L151.108 15.8407H151.428L164.84 46.9836H158.054L155.703 41.1107ZM153.78 36.0998L150.894 28.8259L147.902 36.0998H153.78Z" fill="#2C6A3F"/>
<path d="M169.009 20.7978C169.65 20.259 170.345 19.9896 171.146 19.9896C171.948 19.9896 172.642 20.259 173.23 20.7978C173.871 21.3366 174.139 22.0371 174.139 22.8453C174.139 23.6535 173.818 24.354 173.23 24.8928C172.589 25.4316 171.894 25.701 171.146 25.701C170.345 25.701 169.597 25.4316 169.009 24.8928C168.368 24.354 168.047 23.6535 168.047 22.8453C168.047 22.0371 168.368 21.3366 169.009 20.7978ZM173.818 29.1493V46.9299H168.154V29.1493H173.818Z" fill="#2C6A3F"/>
<path d="M187.175 30.6586C188.03 29.9043 188.885 29.3116 189.794 28.8805C190.702 28.4495 191.397 28.234 191.878 28.234L191.61 33.9453C191.45 33.9453 191.236 33.8914 190.916 33.8914C189.794 33.8914 188.778 34.2147 187.924 34.8074C187.069 35.4001 186.427 36.1544 185.946 37.1243C185.466 38.0402 185.252 39.0101 185.252 39.9799V46.9305H179.641V29.1499H184.718L185.145 33.2449C185.679 32.275 186.321 31.4129 187.175 30.6586Z" fill="#2C6A3F"/>
<path d="M212.771 32.9213C211.969 31.4665 210.794 30.335 209.297 29.5268C207.801 28.7186 206.091 28.2875 204.114 28.2875C202.137 28.2875 200.374 28.7186 198.825 29.5268C197.275 30.335 196.099 31.4665 195.244 32.9213C194.39 34.376 193.962 35.9924 193.962 37.8244C193.962 39.818 194.39 41.4883 195.244 42.943C196.099 44.3978 197.275 45.4754 198.771 46.2836C200.267 47.038 202.03 47.469 204.008 47.469C206.038 47.469 207.801 47.038 209.297 46.2298C210.794 45.4216 211.916 44.2362 212.771 42.7814C213.572 41.3266 214 39.6563 214 37.8783C214 35.9925 213.626 34.376 212.771 32.9213ZM207.214 42.2426C206.626 42.7814 205.878 43.1047 204.969 43.2663V44.6133H203.046V43.2663C202.405 43.2125 201.817 43.0508 201.282 42.8353C200.695 42.6198 200.214 42.2965 199.786 41.9732L200.962 40.3029C201.817 41.0033 202.832 41.3266 203.954 41.3266C204.542 41.3266 204.969 41.2189 205.29 41.0572C205.611 40.8956 205.771 40.5723 205.771 40.249C205.771 39.9257 205.611 39.7102 205.29 39.4947C204.969 39.333 204.488 39.1714 203.794 39.1175C202.458 38.9559 201.496 38.6326 200.908 38.2016C200.321 37.7166 200 37.0701 200 36.1541C200 35.3998 200.267 34.7532 200.748 34.2683C201.229 33.7833 201.977 33.4062 202.832 33.2445V31.8436H204.702V33.1907C205.236 33.2445 205.771 33.3523 206.252 33.5678C206.733 33.7295 207.214 33.9989 207.588 34.2683L206.519 35.8847C205.771 35.3459 204.916 35.0765 204.008 35.0765C203.42 35.0765 202.992 35.1842 202.672 35.3459C202.351 35.5075 202.191 35.7769 202.191 36.1002C202.191 36.4235 202.351 36.639 202.618 36.8007C202.885 36.9623 203.42 37.0701 204.061 37.1778C205.343 37.3395 206.359 37.6628 207 38.1477C207.641 38.6326 207.962 39.333 207.962 40.249C208.068 41.0572 207.748 41.7038 207.214 42.2426Z" fill="#2C6A3F"/>
<path d="M16.5643 37.7164L0 58.8915V0L16.404 37.7164H16.5643Z" fill="#2C6A3F"/>
<path d="M53.3787 18.8582C53.3787 24.0846 51.2948 28.7722 47.8751 32.2206C45.5775 34.5374 42.6386 36.2616 39.3792 37.1237L5.71629 0.053873V-7.62939e-06C5.93002 -7.62939e-06 6.19718 -7.62939e-06 6.41092 -7.62939e-06H34.6771C44.9897 -7.62939e-06 53.3787 8.45924 53.3787 18.8582Z" fill="#2C6A3F"/>
<path d="M34.5179 37.7164H16.404L0 0L19.1291 20.7979L34.5179 37.7164Z" fill="#468349"/>
</g>
<defs>
<clipPath id="clip0_166_1240">
<rect width="214" height="58.8915" fill="white"/>
</clipPath>
</defs>
</svg>
