<svg width="16" height="16" viewBox="0 0 16 16" fill="none" xmlns="http://www.w3.org/2000/svg">
<path d="M4.66667 2H2.66667C2.29848 2 2 2.29848 2 2.66667V4.66667C2 5.03486 2.29848 5.33333 2.66667 5.33333H4.66667C5.03486 5.33333 5.33333 5.03486 5.33333 4.66667V2.66667C5.33333 2.29848 5.03486 2 4.66667 2Z" stroke="#6A6A6A" stroke-linecap="round" stroke-linejoin="round"/>
<path d="M13.3327 2H11.3327C10.9645 2 10.666 2.29848 10.666 2.66667V4.66667C10.666 5.03486 10.9645 5.33333 11.3327 5.33333H13.3327C13.7009 5.33333 13.9993 5.03486 13.9993 4.66667V2.66667C13.9993 2.29848 13.7009 2 13.3327 2Z" stroke="#6A6A6A" stroke-linecap="round" stroke-linejoin="round"/>
<path d="M4.66667 10.6667H2.66667C2.29848 10.6667 2 10.9652 2 11.3334V13.3334C2 13.7016 2.29848 14.0001 2.66667 14.0001H4.66667C5.03486 14.0001 5.33333 13.7016 5.33333 13.3334V11.3334C5.33333 10.9652 5.03486 10.6667 4.66667 10.6667Z" stroke="#6A6A6A" stroke-linecap="round" stroke-linejoin="round"/>
<path d="M13.9993 10.6667H11.9993C11.6457 10.6667 11.3066 10.8072 11.0565 11.0573C10.8065 11.3073 10.666 11.6465 10.666 12.0001V14.0001" stroke="#6A6A6A" stroke-linecap="round" stroke-linejoin="round"/>
<path d="M14 14V14.0067" stroke="#6A6A6A" stroke-linecap="round" stroke-linejoin="round"/>
<path d="M7.99935 4.66675V6.66675C7.99935 7.02037 7.85887 7.35951 7.60882 7.60956C7.35878 7.85961 7.01964 8.00008 6.66602 8.00008H4.66602" stroke="#6A6A6A" stroke-linecap="round" stroke-linejoin="round"/>
<path d="M2 8H2.00667" stroke="#6A6A6A" stroke-linecap="round" stroke-linejoin="round"/>
<path d="M8 2H8.00667" stroke="#6A6A6A" stroke-linecap="round" stroke-linejoin="round"/>
<path d="M8 10.6667V10.6734" stroke="#6A6A6A" stroke-linecap="round" stroke-linejoin="round"/>
<path d="M10.666 8H11.3327" stroke="#6A6A6A" stroke-linecap="round" stroke-linejoin="round"/>
<path d="M14 8V8.00667" stroke="#6A6A6A" stroke-linecap="round" stroke-linejoin="round"/>
<path d="M8 13.9999V13.3333" stroke="#6A6A6A" stroke-linecap="round" stroke-linejoin="round"/>
</svg>
