<svg width="90" height="87" viewBox="0 0 90 87" fill="none" xmlns="http://www.w3.org/2000/svg">
<g filter="url(#filter0_d_166_6808)">
<circle cx="45" cy="39" r="25" fill="#00793F"/>
<g clip-path="url(#clip0_166_6808)">
<path d="M37 42C37.2449 42 37.4813 42.09 37.6644 42.2527C37.8474 42.4155 37.9643 42.6397 37.993 42.883L38 43V46H42C42.2549 46.0003 42.5 46.0979 42.6854 46.2728C42.8707 46.4478 42.9822 46.687 42.9972 46.9414C43.0121 47.1958 42.9293 47.4464 42.7657 47.6418C42.6021 47.8373 42.3701 47.9629 42.117 47.993L42 48H38C37.4954 48.0002 37.0094 47.8096 36.6395 47.4665C36.2695 47.1234 36.0428 46.6532 36.005 46.15L36 46V43C36 42.7348 36.1054 42.4804 36.2929 42.2929C36.4804 42.1054 36.7348 42 37 42ZM53 42C53.2652 42 53.5196 42.1054 53.7071 42.2929C53.8946 42.4804 54 42.7348 54 43V46C54 46.5304 53.7893 47.0391 53.4142 47.4142C53.0391 47.7893 52.5304 48 52 48H48C47.7348 48 47.4804 47.8946 47.2929 47.7071C47.1054 47.5196 47 47.2652 47 47C47 46.7348 47.1054 46.4804 47.2929 46.2929C47.4804 46.1054 47.7348 46 48 46H52V43C52 42.7348 52.1054 42.4804 52.2929 42.2929C52.4804 42.1054 52.7348 42 53 42ZM53 38C53.2549 38.0003 53.5 38.0979 53.6854 38.2728C53.8707 38.4478 53.9822 38.687 53.9972 38.9414C54.0121 39.1958 53.9293 39.4464 53.7657 39.6418C53.6021 39.8373 53.3701 39.9629 53.117 39.993L53 40H37C36.7451 39.9997 36.5 39.9021 36.3146 39.7272C36.1293 39.5522 36.0178 39.313 36.0028 39.0586C35.9879 38.8042 36.0707 38.5536 36.2343 38.3582C36.3979 38.1627 36.6299 38.0371 36.883 38.007L37 38H53ZM42 30C42.2652 30 42.5196 30.1054 42.7071 30.2929C42.8946 30.4804 43 30.7348 43 31C43 31.2652 42.8946 31.5196 42.7071 31.7071C42.5196 31.8946 42.2652 32 42 32H38V35C38 35.2652 37.8946 35.5196 37.7071 35.7071C37.5196 35.8946 37.2652 36 37 36C36.7348 36 36.4804 35.8946 36.2929 35.7071C36.1054 35.5196 36 35.2652 36 35V32C36 31.4696 36.2107 30.9609 36.5858 30.5858C36.9609 30.2107 37.4696 30 38 30H42ZM52 30C52.5304 30 53.0391 30.2107 53.4142 30.5858C53.7893 30.9609 54 31.4696 54 32V35C54 35.2652 53.8946 35.5196 53.7071 35.7071C53.5196 35.8946 53.2652 36 53 36C52.7348 36 52.4804 35.8946 52.2929 35.7071C52.1054 35.5196 52 35.2652 52 35V32H48C47.7348 32 47.4804 31.8946 47.2929 31.7071C47.1054 31.5196 47 31.2652 47 31C47 30.7348 47.1054 30.4804 47.2929 30.2929C47.4804 30.1054 47.7348 30 48 30H52Z" fill="white"/>
</g>
</g>
<defs>
<filter id="filter0_d_166_6808" x="0" y="0" width="90" height="90" filterUnits="userSpaceOnUse" color-interpolation-filters="sRGB">
<feFlood flood-opacity="0" result="BackgroundImageFix"/>
<feColorMatrix in="SourceAlpha" type="matrix" values="0 0 0 0 0 0 0 0 0 0 0 0 0 0 0 0 0 0 127 0" result="hardAlpha"/>
<feOffset dy="6"/>
<feGaussianBlur stdDeviation="10"/>
<feComposite in2="hardAlpha" operator="out"/>
<feColorMatrix type="matrix" values="0 0 0 0 0 0 0 0 0 0.507692 0 0 0 0 0.264 0 0 0 1 0"/>
<feBlend mode="normal" in2="BackgroundImageFix" result="effect1_dropShadow_166_6808"/>
<feBlend mode="normal" in="SourceGraphic" in2="effect1_dropShadow_166_6808" result="shape"/>
</filter>
<clipPath id="clip0_166_6808">
<rect width="24" height="24" fill="white" transform="translate(33 27)"/>
</clipPath>
</defs>
</svg>
