<svg width="16" height="16" viewBox="0 0 16 16" fill="none" xmlns="http://www.w3.org/2000/svg">
<path d="M10.793 1.33301H5.20634C2.77967 1.33301 1.33301 2.77967 1.33301 5.20634V10.7863C1.33301 13.2197 2.77967 14.6663 5.20634 14.6663H10.7863C13.213 14.6663 14.6597 13.2197 14.6597 10.793V5.20634C14.6663 2.77967 13.2197 1.33301 10.793 1.33301ZM11.1863 6.46634L7.40634 10.2463C7.31301 10.3397 7.18634 10.393 7.05301 10.393C6.91967 10.393 6.79301 10.3397 6.69967 10.2463L4.81301 8.35967C4.61967 8.16634 4.61967 7.84634 4.81301 7.65301C5.00634 7.45967 5.32634 7.45967 5.51967 7.65301L7.05301 9.18634L10.4797 5.75967C10.673 5.56634 10.993 5.56634 11.1863 5.75967C11.3797 5.95301 11.3797 6.26634 11.1863 6.46634Z" fill="#00793F"/>
</svg>
